<?xml version="1.0" encoding="UTF-8" standalone="no"?>
<!-- Generator: Adobe Illustrator 19.0.0, SVG Export Plug-In . SVG Version: 6.00 Build 0)  -->

<svg
   version="1.1"
   id="Capa_1"
   x="0px"
   y="0px"
   viewBox="0 0 16 16"
   xml:space="preserve"
   sodipodi:docname="control.svg"
   width="16"
   height="16"
   inkscape:version="1.1.1 (3bf5ae0d25, 2021-09-20)"
   inkscape:export-filename="/home/nathan/workspace/personal/nicense/addons/nicense/node.png"
   inkscape:export-xdpi="24"
   inkscape:export-ydpi="24"
   xmlns:inkscape="http://www.inkscape.org/namespaces/inkscape"
   xmlns:sodipodi="http://sodipodi.sourceforge.net/DTD/sodipodi-0.dtd"
   xmlns="http://www.w3.org/2000/svg"
   xmlns:svg="http://www.w3.org/2000/svg"><defs
   id="defs37" /><sodipodi:namedview
   id="namedview35"
   pagecolor="#505050"
   bordercolor="#ffffff"
   borderopacity="1"
   inkscape:pageshadow="0"
   inkscape:pageopacity="0"
   inkscape:pagecheckerboard="1"
   showgrid="false"
   inkscape:zoom="9.6166523"
   inkscape:cx="25.268669"
   inkscape:cy="27.296401"
   inkscape:window-width="1920"
   inkscape:window-height="1056"
   inkscape:window-x="0"
   inkscape:window-y="0"
   inkscape:window-maximized="1"
   inkscape:current-layer="Capa_1" />
<path
   id="path2"
   style="fill:#8eef97;fill-opacity:1;stroke-width:0.0244899"
   sodipodi:type="inkscape:offset"
   inkscape:radius="0.17436069"
   inkscape:original="M 6.1328125 2 C 6.0112696 2 5.9068861 2.0860087 5.8828125 2.2050781 L 4.2070312 10.494141 L 3.1972656 10.494141 C 2.5260493 10.494141 2 11.265149 2 12.248047 C 2 13.230676 2.5260493 14 3.1972656 14 L 9.8984375 14 C 10.898136 14 11.784026 13.229294 12.054688 12.125 L 13.992188 4.21875 C 14.011727 4.138815 13.993059 4.0546366 13.939453 3.9921875 L 12.308594 2.0898438 C 12.260104 2.0331008 12.189781 2 12.115234 2 L 6.1328125 2 z M 6.3417969 2.5097656 L 11.791016 2.5097656 L 11.402344 4.0957031 C 11.355394 4.2565031 11.489201 4.4121094 11.650391 4.4121094 L 13.419922 4.4121094 L 11.558594 12.001953 C 11.344186 12.877121 10.662275 13.490234 9.8984375 13.490234 L 9.734375 13.490234 C 9.471967 13.490234 9.1831135 13.094361 9.1171875 12.501953 L 10.619141 12.501953 C 10.760153 12.501953 10.875 12.389182 10.875 12.248047 C 10.875 11.265174 10.374539 10.494141 9.734375 10.494141 L 4.7285156 10.494141 L 6.3417969 2.5097656 z M 12.246094 2.7988281 L 13.189453 3.9023438 L 11.974609 3.9023438 L 12.246094 2.7988281 z M 3.1972656 11.005859 L 4.4160156 11.005859 L 8.921875 11.005859 C 8.717532 11.320994 8.5917969 11.758056 8.5917969 12.248047 C 8.5917729 12.737917 8.717532 13.1751 8.921875 13.490234 L 3.1972656 13.490234 C 2.8726289 13.490234 2.5097656 12.979851 2.5097656 12.248047 C 2.5097656 11.515998 2.8726289 11.005859 3.1972656 11.005859 z M 9.734375 11.005859 C 9.996686 11.005859 10.283682 11.39951 10.349609 11.992188 L 9.1171875 11.992188 C 9.1831375 11.39951 9.471967 11.005859 9.734375 11.005859 z "
   d="m 6.1328125,1.8261719 c -0.2037994,0 -0.3816322,0.1447067 -0.421875,0.34375 L 4.0644531,10.320312 H 3.1972656 c -0.4023693,0 -0.7549647,0.233556 -0.9941406,0.583985 -0.2391759,0.350428 -0.3769531,0.821195 -0.3769531,1.34375 0,0.522429 0.1377275,0.993753 0.3769531,1.34375 0.2392256,0.349996 0.5919172,0.582031 0.9941406,0.582031 h 6.7011719 c 1.0893125,0 2.0390345,-0.836299 2.3261715,-2.007812 l 1.9375,-7.9062504 c 0.03233,-0.1322458 0.0012,-0.2748313 -0.08984,-0.3808594 L 12.441406,1.9765625 C 12.360583,1.8819836 12.241395,1.8261719 12.115234,1.8261719 Z M 6.4863281,2.6835938 H 11.568359 L 11.234375,4.046875 c -0.08041,0.2754073 0.142612,0.5390625 0.416016,0.5390625 h 1.546875 l -1.808594,7.3750005 c -0.198555,0.810459 -0.8197,1.355468 -1.4902345,1.355468 H 9.734375 c -0.043523,0 -0.1418849,-0.04908 -0.2363281,-0.193359 -0.065937,-0.100732 -0.1038576,-0.279641 -0.1445313,-0.447266 h 1.2656254 c 0.233972,0 0.429687,-0.19201 0.429687,-0.427734 0,-0.52103 -0.129728,-0.989519 -0.357422,-1.339844 -0.227694,-0.350325 -0.566947,-0.587891 -0.957031,-0.587891 H 4.9433594 Z m 5.8476559,0.4882812 0.476563,0.5566406 h -0.613281 z m -9.1367184,8.007813 h 1.21875 4.2421875 c -0.141884,0.310088 -0.2402343,0.664212 -0.2402343,1.068359 -1.98e-5,0.404067 0.098343,0.758242 0.2402343,1.068359 H 3.1972656 c -0.070944,0 -0.2042568,-0.07459 -0.3164062,-0.261718 C 2.76871,12.867562 2.6835937,12.58513 2.6835938,12.248047 c 0,-0.337215 0.085125,-0.619555 0.1972656,-0.806641 0.112141,-0.187085 0.2454189,-0.261718 0.3164062,-0.261718 z m 6.5371094,0 c 0.043934,0 0.1404504,0.0497 0.234375,0.193359 0.065496,0.100178 0.104001,0.278036 0.144531,0.445312 H 9.3535156 c 0.040661,-0.167181 0.078748,-0.345117 0.1445313,-0.445312 0.094335,-0.143685 0.1923131,-0.193359 0.2363281,-0.193359 z"
   transform="matrix(0.97179027,0,0,0.97184436,0.22534393,0.22524517)" />
<g
   id="g4">
</g>
<g
   id="g6">
</g>
<g
   id="g8">
</g>
<g
   id="g10">
</g>
<g
   id="g12">
</g>
<g
   id="g14">
</g>
<g
   id="g16">
</g>
<g
   id="g18">
</g>
<g
   id="g20">
</g>
<g
   id="g22">
</g>
<g
   id="g24">
</g>
<g
   id="g26">
</g>
<g
   id="g28">
</g>
<g
   id="g30">
</g>
<g
   id="g32">
</g>
</svg>
